<svg class="icon icon--logo"  viewBox="0 0 750 750" version="1.1" style="shape-rendering:geometricPrecision; text-rendering:geometricPrecision; image-rendering:optimizeQuality; fill-rule:evenodd; clip-rule:evenodd" xmlns:xlink="http://www.w3.org/1999/xlink">
<g><path style="opacity:1" fill="#fefefe" d="M -0.5,-0.5 C 259.833,-0.5 520.167,-0.5 780.5,-0.5C 780.5,259.5 780.5,519.5 780.5,779.5C 520.167,779.5 259.833,779.5 -0.5,779.5C -0.5,519.5 -0.5,259.5 -0.5,-0.5 Z"/></g>
<g><path style="opacity:1" fill="#d3b9cf" d="M 179.5,131.5 C 219.168,131.333 258.835,131.5 298.5,132C 320.819,132.346 341.152,138.679 359.5,151C 373.249,163.176 379.582,178.51 378.5,197C 378.671,226.841 364.338,245.841 335.5,254C 327.317,256.419 318.984,258.086 310.5,259C 327.183,260.241 343.183,264.241 358.5,271C 369.217,277.383 377.55,286.05 383.5,297C 420.832,297.5 458.165,297.667 495.5,297.5C 495.5,298.833 495.5,300.167 495.5,301.5C 487.202,300.829 479.202,301.995 471.5,305C 467.281,307.552 464.114,311.052 462,315.5C 460.528,349.118 460.028,382.784 460.5,416.5C 445.5,416.5 430.5,416.5 415.5,416.5C 415.667,384.165 415.5,351.832 415,319.5C 412.608,309.775 406.441,304.275 396.5,303C 393.183,302.502 389.85,302.335 386.5,302.5C 392.433,322.743 391.6,342.743 384,362.5C 376.56,376.657 365.393,386.823 350.5,393C 336.033,398.485 321.033,401.485 305.5,402C 263.501,402.5 221.501,402.667 179.5,402.5C 179.5,401.167 179.5,399.833 179.5,398.5C 188.705,399.199 197.372,397.365 205.5,393C 210.559,389.058 213.726,383.891 215,377.5C 215.667,303.167 215.667,228.833 215,154.5C 212.154,143.987 205.321,138.153 194.5,137C 189.511,136.501 184.511,136.334 179.5,136.5C 179.5,134.833 179.5,133.167 179.5,131.5 Z"/></g>
<g><path style="opacity:1" fill="#fefefe" d="M 254.5,135.5 C 266.171,135.333 277.838,135.5 289.5,136C 317.742,138.243 333.576,153.409 337,181.5C 338.108,196.27 337.442,210.937 335,225.5C 330.722,242.112 320.222,252.278 303.5,256C 287.248,258.204 270.915,259.037 254.5,258.5C 254.5,217.5 254.5,176.5 254.5,135.5 Z"/></g>
<g><path style="opacity:1" fill="#fefefe" d="M 254.5,262.5 C 272.201,262.119 289.868,262.619 307.5,264C 331.656,268.491 345.156,282.991 348,307.5C 350.713,327.767 349.38,347.767 344,367.5C 337.332,385.146 324.498,394.98 305.5,397C 288.538,398.393 271.538,398.893 254.5,398.5C 254.5,353.167 254.5,307.833 254.5,262.5 Z"/></g>
<g><path style="opacity:1" fill="#959393" d="M 204.5,427.5 C 212.499,426.782 220.166,427.949 227.5,431C 232.263,438.313 230.929,444.313 223.5,449C 219.858,450.27 216.192,451.436 212.5,452.5C 216.046,453.876 219.213,455.876 222,458.5C 224.823,466.331 221.99,470.498 213.5,471C 205.329,471.799 197.329,470.966 189.5,468.5C 189.281,467.325 189.614,466.325 190.5,465.5C 198.615,468.279 206.949,469.112 215.5,468C 222.457,465.812 223.124,462.478 217.5,458C 213.41,456.303 209.243,454.803 205,453.5C 202.563,457.61 200.396,461.944 198.5,466.5C 198.167,465.667 197.833,464.833 197.5,464C 198.667,460.179 199.667,456.346 200.5,452.5C 199.167,452.5 197.833,452.5 196.5,452.5C 196.5,451.5 196.5,450.5 196.5,449.5C 198.5,449.5 200.5,449.5 202.5,449.5C 203.344,445.126 204.344,440.793 205.5,436.5C 206.5,436.5 207.5,436.5 208.5,436.5C 207.032,440.706 206.032,445.039 205.5,449.5C 213.883,450.717 221.049,448.384 227,442.5C 228.989,436.708 227.155,432.875 221.5,431C 209.401,427.647 199.068,430.481 190.5,439.5C 189.146,441.462 189.813,442.462 192.5,442.5C 195.292,442.186 197.792,441.186 200,439.5C 201.826,440.01 201.993,440.844 200.5,442C 196.909,444.805 192.909,445.805 188.5,445C 186.857,441.36 187.524,438.193 190.5,435.5C 194.643,431.766 199.31,429.1 204.5,427.5 Z"/></g>
<g><path style="opacity:1" fill="#959393" d="M 501.5,440.5 C 503.948,440.085 505.281,441.085 505.5,443.5C 504.025,449.424 501.858,455.09 499,460.5C 498.218,463.257 498.718,465.757 500.5,468C 508.451,469.275 514.951,466.775 520,460.5C 520.5,460.833 521,461.167 521.5,461.5C 519.324,466.005 520.657,468.672 525.5,469.5C 530.694,468.468 535.028,465.968 538.5,462C 540.983,460.674 543.483,459.507 546,458.5C 548.942,458.437 549.942,459.77 549,462.5C 546.86,464.487 544.36,465.82 541.5,466.5C 542.09,467.799 543.09,468.632 544.5,469C 550.432,469.694 556.099,468.694 561.5,466C 565.888,462.385 570.388,458.885 575,455.5C 575.5,455.833 576,456.167 576.5,456.5C 573.69,459.412 574.19,461.745 578,463.5C 578.333,464.833 578.667,466.167 579,467.5C 582.544,466.312 585.71,464.478 588.5,462C 589.635,461.251 590.635,461.417 591.5,462.5C 588.345,466.25 584.345,468.75 579.5,470C 574.126,471.392 569.459,470.225 565.5,466.5C 558.457,471.108 550.79,472.608 542.5,471C 540.333,470.167 538.833,468.667 538,466.5C 534.28,469.033 530.28,470.699 526,471.5C 522.064,471.735 519.231,470.068 517.5,466.5C 512.428,470.215 506.762,471.715 500.5,471C 498.658,469.656 496.992,468.156 495.5,466.5C 493.42,468.589 491.087,470.256 488.5,471.5C 487.558,471.392 486.725,471.059 486,470.5C 485.781,469.062 485.281,467.729 484.5,466.5C 479.214,469.654 473.548,470.821 467.5,470C 464.972,468.169 463.972,466.003 464.5,463.5C 459.122,465.662 453.788,468.162 448.5,471C 444.104,472.136 440.438,470.969 437.5,467.5C 435.747,469.261 433.747,470.594 431.5,471.5C 430.558,471.392 429.725,471.059 429,470.5C 428.333,468.5 428.333,466.5 429,464.5C 430.833,462.667 432.667,460.833 434.5,459C 435.944,458.219 437.277,458.386 438.5,459.5C 438.291,460.086 437.957,460.586 437.5,461C 438.893,462.171 439.727,463.671 440,465.5C 441.255,467.594 443.088,468.594 445.5,468.5C 453.134,467.86 457.468,463.86 458.5,456.5C 459.689,455.571 461.022,455.238 462.5,455.5C 462.643,457.262 462.309,458.929 461.5,460.5C 463.718,461.057 466.051,461.057 468.5,460.5C 468.326,462.861 467.993,465.194 467.5,467.5C 475.41,468.208 482.41,466.041 488.5,461C 490.568,460.313 492.568,460.48 494.5,461.5C 494.309,453.573 496.642,446.573 501.5,440.5 Z"/></g>
<g><path style="opacity:1" fill="#ebebeb" d="M 501.5,444.5 C 502.281,447.698 501.447,450.698 499,453.5C 498.64,450.206 499.473,447.206 501.5,444.5 Z"/></g>
<g><path style="opacity:1" fill="#969494" d="M 546.5,449.5 C 549.592,450.495 550.259,452.495 548.5,455.5C 547.295,457.138 545.962,457.471 544.5,456.5C 546.171,454.49 546.838,452.157 546.5,449.5 Z"/></g>
<g><path style="opacity:1" fill="#949393" d="M 303.5,454.5 C 307.401,453.857 310.734,454.857 313.5,457.5C 314.524,456.147 315.857,455.48 317.5,455.5C 317.67,456.822 317.337,457.989 316.5,459C 314.5,459.667 312.5,459.667 310.5,459C 307.731,455.739 305.065,455.906 302.5,459.5C 301.348,457.603 301.681,455.936 303.5,454.5 Z"/></g>
<g><path style="opacity:1" fill="#939191" d="M 519.5,455.5 C 522.018,456.759 521.852,458.093 519,459.5C 517.413,458.154 517.58,456.821 519.5,455.5 Z"/></g>
<g><path style="opacity:1" fill="#949292" d="M 231.5,457.5 C 236.493,457.997 237.493,460.164 234.5,464C 232.285,465.044 229.952,465.71 227.5,466C 228.167,466.667 228.833,467.333 229.5,468C 236.509,469.195 243.175,468.195 249.5,465C 252.432,462.386 255.599,460.219 259,458.5C 261.241,458.68 261.741,459.513 260.5,461C 261.047,461.925 261.713,462.758 262.5,463.5C 266.434,463.17 270.434,463.003 274.5,463C 279.927,458.972 283.261,460.139 284.5,466.5C 291.01,466.792 296.676,464.792 301.5,460.5C 302.167,461.833 302.833,463.167 303.5,464.5C 305.527,462.661 307.86,462.161 310.5,463C 312.429,465.438 314.762,467.272 317.5,468.5C 320.691,467.825 323.691,466.658 326.5,465C 329.187,462.33 332.187,460.164 335.5,458.5C 337.569,458.824 337.902,459.658 336.5,461C 337.806,463.573 339.473,465.906 341.5,468C 343.5,468.667 345.5,468.667 347.5,468C 350.994,466.421 354.327,464.587 357.5,462.5C 358.282,464.329 357.616,465.829 355.5,467C 352.04,469.065 348.374,470.565 344.5,471.5C 341.297,471.232 338.63,469.898 336.5,467.5C 334.747,469.261 332.747,470.594 330.5,471.5C 328.222,471.219 327.055,469.885 327,467.5C 320.034,472.022 313.7,471.355 308,465.5C 305.067,466.771 302.401,468.438 300,470.5C 299.5,470.167 299,469.833 298.5,469.5C 299.428,468.232 299.595,466.899 299,465.5C 292.8,467.558 286.467,469.225 280,470.5C 276.918,470.252 275.418,468.585 275.5,465.5C 271.51,466.529 267.51,466.696 263.5,466C 262.789,467.255 261.956,468.421 261,469.5C 259.641,474.938 257.974,480.272 256,485.5C 254.604,487.527 252.938,487.86 251,486.5C 250.333,484.5 250.333,482.5 251,480.5C 253.162,475.828 255.495,471.494 258,467.5C 255.399,471.438 252.899,471.438 250.5,467.5C 242.63,471.805 234.63,472.305 226.5,469C 225.203,466.455 225.369,463.955 227,461.5C 228.667,460.267 230.167,458.933 231.5,457.5 Z"/></g>
<g><path style="opacity:1" fill="#e4e3e3" d="M 231.5,460.5 C 233.975,460.747 233.975,461.413 231.5,462.5C 230.537,462.03 230.537,461.363 231.5,460.5 Z"/></g>
<g><path style="opacity:1" fill="#f4f4f4" d="M 570.5,461.5 C 573.786,462.242 575.12,464.075 574.5,467C 569.221,467.585 567.888,465.751 570.5,461.5 Z"/></g>
<g><path style="opacity:1" fill="#949292" d="M 432.5,429.5 C 435.167,429.5 437.833,429.5 440.5,429.5C 440.84,433.131 440.006,436.464 438,439.5C 431.739,447.547 423.573,452.381 413.5,454C 408.801,459.034 403.801,463.7 398.5,468C 408.644,469.957 417.977,468.124 426.5,462.5C 427.594,463.868 427.26,465.035 425.5,466C 416.077,471.236 406.077,472.736 395.5,470.5C 388.58,472.16 381.58,472.66 374.5,472C 369.75,470.193 369.417,467.86 373.5,465C 380.591,465.021 387.591,465.688 394.5,467C 400.547,464.122 405.547,459.956 409.5,454.5C 402.7,454.749 397.533,452.083 394,446.5C 393.141,439.02 396.141,433.686 403,430.5C 403.5,430.833 404,431.167 404.5,431.5C 402.183,433.316 400.016,435.316 398,437.5C 394.611,446.795 397.945,451.461 408,451.5C 409.5,451.333 411,451.167 412.5,451C 418.327,443.008 424.993,435.842 432.5,429.5 Z"/></g>
<g><path style="opacity:1" fill="#f8f8f8" d="M 434.5,431.5 C 435.978,431.238 437.311,431.571 438.5,432.5C 435.753,439.413 431.087,444.579 424.5,448C 421.911,449.314 419.244,449.981 416.5,450C 422.032,443.303 428.032,437.136 434.5,431.5 Z"/></g>
<g><path style="opacity:1" fill="#f2f2f2" d="M 489.5,462.5 C 493.029,463.609 493.362,465.442 490.5,468C 489.552,468.483 488.552,468.649 487.5,468.5C 487.604,466.297 488.27,464.297 489.5,462.5 Z"/></g>
<g><path style="opacity:1" fill="#e9e8e8" d="M 256.5,461.5 C 257.239,461.369 257.906,461.536 258.5,462C 257.521,464.137 256.188,465.971 254.5,467.5C 254.167,467.167 253.833,466.833 253.5,466.5C 254.952,465.06 255.952,463.394 256.5,461.5 Z"/></g>
<g><path style="opacity:1" fill="#ececec" d="M 278.5,463.5 C 280.3,464.895 280.634,466.561 279.5,468.5C 277.246,467.286 276.913,465.619 278.5,463.5 Z"/></g>
<g><path style="opacity:1" fill="#eeeeee" d="M 333.5,461.5 C 334.239,461.369 334.906,461.536 335.5,462C 334,464.167 332.5,466.333 331,468.5C 330.993,465.958 331.826,463.624 333.5,461.5 Z"/></g>
<g><path style="opacity:1" fill="#eeeeee" d="M 434.5,461.5 C 435.239,461.369 435.906,461.536 436.5,462C 435,464.167 433.5,466.333 432,468.5C 431.993,465.958 432.826,463.624 434.5,461.5 Z"/></g>
<g><path style="opacity:1" fill="#f5f5f5" d="M 373.5,468.5 C 378.074,467.165 382.74,467.332 387.5,469C 382.756,470.99 378.089,470.824 373.5,468.5 Z"/></g>
<g><path style="opacity:1" fill="#d9d8d8" d="M 255.5,478.5 C 255.312,476.897 255.812,475.563 257,474.5C 257.348,476.14 256.848,477.473 255.5,478.5 Z"/></g>
<g><path style="opacity:1" fill="#dad9d9" d="M 255.5,478.5 C 255.496,480.842 254.663,482.842 253,484.5C 252.992,482.179 253.825,480.179 255.5,478.5 Z"/></g>
<g><path style="opacity:1" fill="#d3b9cf" d="M 415.5,493.5 C 430.5,493.5 445.5,493.5 460.5,493.5C 460.5,517.167 460.5,540.833 460.5,564.5C 487.857,564.896 515.191,564.396 542.5,563C 562.472,560.027 575.306,548.86 581,529.5C 583.619,517.639 585.119,505.639 585.5,493.5C 587.167,493.5 588.833,493.5 590.5,493.5C 589.707,518.496 589.04,543.496 588.5,568.5C 518.833,568.5 449.167,568.5 379.5,568.5C 379.5,567.167 379.5,565.833 379.5,564.5C 389.955,565.635 399.621,563.469 408.5,558C 412.13,554.238 414.297,549.738 415,544.5C 415.5,527.503 415.667,510.503 415.5,493.5 Z"/></g>
<g><path style="opacity:1" fill="#999797" d="M 230.5,506.5 C 234.102,506.678 234.102,507.678 230.5,509.5C 229.913,508.767 229.913,507.767 230.5,506.5 Z"/></g>
<g><path style="opacity:1" fill="#949292" d="M 141.5,510.5 C 146.993,509.178 149.493,511.178 149,516.5C 147.644,517.38 146.144,517.714 144.5,517.5C 144.5,518.833 144.5,520.167 144.5,521.5C 143.5,521.5 142.5,521.5 141.5,521.5C 141.5,517.833 141.5,514.167 141.5,510.5 Z"/></g>
<g><path style="opacity:1" fill="#8e8d8d" d="M 164.5,510.5 C 166.977,510.051 168.977,510.717 170.5,512.5C 168.784,512.997 167.117,513.331 165.5,513.5C 167.179,514.782 169.013,515.782 171,516.5C 171.165,520.977 168.998,522.477 164.5,521C 162.595,520.174 162.261,519.007 163.5,517.5C 164.968,519.333 166.635,519.666 168.5,518.5C 166.821,517.218 164.987,516.218 163,515.5C 162.36,513.457 162.86,511.79 164.5,510.5 Z"/></g>
<g><path style="opacity:1" fill="#919090" d="M 184.5,510.5 C 185.5,510.5 186.5,510.5 187.5,510.5C 187.5,514.167 187.5,517.833 187.5,521.5C 186.5,521.5 185.5,521.5 184.5,521.5C 184.5,517.833 184.5,514.167 184.5,510.5 Z"/></g>
<g><path style="opacity:1" fill="#959393" d="M 203.5,510.5 C 206.272,510.22 208.772,510.887 211,512.5C 211.591,513.483 211.257,514.15 210,514.5C 207.146,512.756 204.979,513.256 203.5,516C 204.979,518.744 207.146,519.244 210,517.5C 211.826,518.01 211.993,518.844 210.5,520C 203.752,522.909 200.586,520.743 201,513.5C 202.045,512.627 202.878,511.627 203.5,510.5 Z"/></g>
<g><path style="opacity:1" fill="#908e8e" d="M 227.5,510.5 C 235.168,510.507 237.168,513.84 233.5,520.5C 227.197,522.363 224.364,520.03 225,513.5C 226.045,512.627 226.878,511.627 227.5,510.5 Z"/></g>
<g><path style="opacity:1" fill="#939191" d="M 248.5,510.5 C 249.5,510.5 250.5,510.5 251.5,510.5C 251.5,513.5 251.5,516.5 251.5,519.5C 252.978,519.238 254.311,519.571 255.5,520.5C 253.257,521.474 250.924,521.808 248.5,521.5C 248.5,517.833 248.5,514.167 248.5,510.5 Z"/></g>
<g><path style="opacity:1" fill="#908e8e" d="M 271.5,510.5 C 279.168,510.507 281.168,513.84 277.5,520.5C 271.197,522.363 268.364,520.03 269,513.5C 270.045,512.627 270.878,511.627 271.5,510.5 Z"/></g>
<g><path style="opacity:1" fill="#929090" d="M 296.5,510.5 C 299.961,509.889 302.628,511.056 304.5,514C 301.843,514.175 299.176,514.008 296.5,513.5C 295.492,518.678 297.159,520.178 301.5,518C 300.376,517.751 299.376,517.251 298.5,516.5C 300.396,515.534 302.396,515.201 304.5,515.5C 303.669,520.989 300.669,522.656 295.5,520.5C 292.708,516.808 293.042,513.474 296.5,510.5 Z"/></g>
<g><path style="opacity:1" fill="#8e8d8d" d="M 320.5,510.5 C 321.822,510.33 322.989,510.663 324,511.5C 325.167,514.5 326.333,517.5 327.5,520.5C 327,520.833 326.5,521.167 326,521.5C 324.78,520.612 323.447,519.945 322,519.5C 320.213,520.563 318.379,521.063 316.5,521C 318.33,517.676 319.663,514.176 320.5,510.5 Z"/></g>
<g><path style="opacity:1" fill="#ededed" d="M 144.5,512.5 C 146.465,512.948 146.798,513.948 145.5,515.5C 144.614,514.675 144.281,513.675 144.5,512.5 Z"/></g>
<g><path style="opacity:1" fill="#f5f5f5" d="M 228.5,513.5 C 232.138,512.737 233.638,514.07 233,517.5C 228.415,519.413 226.915,518.079 228.5,513.5 Z"/></g>
<g><path style="opacity:1" fill="#f5f5f5" d="M 272.5,513.5 C 276.138,512.737 277.638,514.07 277,517.5C 272.415,519.413 270.915,518.079 272.5,513.5 Z"/></g>
<g><path style="opacity:1" fill="#cfcece" d="M 321.5,514.5 C 323.332,515.14 323.665,516.14 322.5,517.5C 321.614,516.675 321.281,515.675 321.5,514.5 Z"/></g>
<g><path style="opacity:1" fill="#919090" d="M 86.5,526.5 C 87.5,526.5 88.5,526.5 89.5,526.5C 89.5,530.167 89.5,533.833 89.5,537.5C 88.5,537.5 87.5,537.5 86.5,537.5C 86.5,533.833 86.5,530.167 86.5,526.5 Z"/></g>
<g><path style="opacity:1" fill="#908e8e" d="M 102.5,526.5 C 103.552,526.351 104.552,526.517 105.5,527C 106.542,528.918 107.708,530.751 109,532.5C 109.192,530.423 109.692,528.423 110.5,526.5C 111.489,530.107 111.823,533.774 111.5,537.5C 110.325,537.719 109.325,537.386 108.5,536.5C 106.101,531.025 105.101,531.359 105.5,537.5C 104.5,537.5 103.5,537.5 102.5,537.5C 102.5,533.833 102.5,530.167 102.5,526.5 Z"/></g>
<g><path style="opacity:1" fill="#908e8e" d="M 125.5,526.5 C 127.5,526.5 129.5,526.5 131.5,526.5C 131.5,527.5 131.5,528.5 131.5,529.5C 127.5,529.833 127.5,530.167 131.5,530.5C 131.5,531.5 131.5,532.5 131.5,533.5C 130.167,533.5 128.833,533.5 127.5,533.5C 127.762,534.978 127.429,536.311 126.5,537.5C 125.511,533.893 125.177,530.226 125.5,526.5 Z"/></g>
<g><path style="opacity:1" fill="#939191" d="M 148.5,526.5 C 149.675,526.281 150.675,526.614 151.5,527.5C 152.559,530.618 153.892,533.618 155.5,536.5C 155,536.833 154.5,537.167 154,537.5C 151.333,534.833 148.667,534.833 146,537.5C 145.5,537.167 145,536.833 144.5,536.5C 146.036,533.222 147.369,529.889 148.5,526.5 Z"/></g>
<g><path style="opacity:1" fill="#898787" d="M 168.5,526.5 C 169.675,526.281 170.675,526.614 171.5,527.5C 173.623,532.845 174.957,532.511 175.5,526.5C 176.833,530.167 176.833,533.833 175.5,537.5C 173.768,535.717 172.268,533.717 171,531.5C 170.808,533.577 170.308,535.577 169.5,537.5C 168.511,533.893 168.177,530.226 168.5,526.5 Z"/></g>
<g><path style="opacity:1" fill="#898787" d="M 193.5,537.5 C 193.5,534.5 193.5,531.5 193.5,528.5C 192.167,528.5 190.833,528.5 189.5,528.5C 190.514,527.235 192.014,526.569 194,526.5C 195.5,526.833 197,527.167 198.5,527.5C 197.675,528.386 196.675,528.719 195.5,528.5C 196.055,532.012 195.388,535.012 193.5,537.5 Z"/></g>
<g><path style="opacity:1" fill="#959494" d="M 213.5,526.5 C 219.83,525.666 222.663,528.333 222,534.5C 216.943,539.075 213.109,538.242 210.5,532C 211.124,529.915 212.124,528.082 213.5,526.5 Z"/></g>
<g><path style="opacity:1" fill="#949393" d="M 255.5,526.5 C 256.5,526.5 257.5,526.5 258.5,526.5C 258.665,529.518 258.498,532.518 258,535.5C 256.556,537.155 254.722,537.822 252.5,537.5C 252.5,536.5 252.5,535.5 252.5,534.5C 253.5,534.5 254.5,534.5 255.5,534.5C 255.5,531.833 255.5,529.167 255.5,526.5 Z"/></g>
<g><path style="opacity:1" fill="#8f8d8d" d="M 271.5,526.5 C 272.5,526.5 273.5,526.5 274.5,526.5C 274.5,529.167 274.5,531.833 274.5,534.5C 275.833,534.5 277.167,534.5 278.5,534.5C 278.187,531.753 278.52,529.086 279.5,526.5C 280.833,529.833 280.833,533.167 279.5,536.5C 276.709,538.04 274.209,537.706 272,535.5C 271.502,532.518 271.335,529.518 271.5,526.5 Z"/></g>
<g><path style="opacity:1" fill="#908e8e" d="M 293.5,527.5 C 294.386,526.224 295.386,526.224 296.5,527.5C 297.609,529.385 298.443,531.385 299,533.5C 299.667,531.5 300.333,529.5 301,527.5C 302.049,526.483 303.216,526.316 304.5,527C 303.036,530.765 301.202,534.265 299,537.5C 296.882,534.301 295.048,530.967 293.5,527.5 Z"/></g>
<g><path style="opacity:1" fill="#878585" d="M 323.5,528.5 C 322.167,528.5 320.833,528.5 319.5,528.5C 319.5,529.5 319.5,530.5 319.5,531.5C 320.833,531.5 322.167,531.5 323.5,531.5C 323.5,531.833 323.5,532.167 323.5,532.5C 322.167,532.5 320.833,532.5 319.5,532.5C 319.5,533.5 319.5,534.5 319.5,535.5C 320.833,535.5 322.167,535.5 323.5,535.5C 322.082,537.308 320.082,537.975 317.5,537.5C 317.5,533.833 317.5,530.167 317.5,526.5C 320.082,526.025 322.082,526.692 323.5,528.5 Z"/></g>
<g><path style="opacity:1" fill="#918f8f" d="M 337.5,526.5 C 340.595,526.626 342.428,528.293 343,531.5C 343.494,529.866 343.66,528.199 343.5,526.5C 344.5,526.5 345.5,526.5 346.5,526.5C 346.5,530.167 346.5,533.833 346.5,537.5C 343.405,537.374 341.572,535.707 341,532.5C 340.506,534.134 340.34,535.801 340.5,537.5C 339.5,537.5 338.5,537.5 337.5,537.5C 337.5,533.833 337.5,530.167 337.5,526.5 Z"/></g>
<g><path style="opacity:1" fill="#959393" d="M 359.5,526.5 C 360.5,526.5 361.5,526.5 362.5,526.5C 362.5,530.167 362.5,533.833 362.5,537.5C 361.5,537.5 360.5,537.5 359.5,537.5C 359.5,533.833 359.5,530.167 359.5,526.5 Z"/></g>
<g><path style="opacity:1" fill="#878585" d="M 378.5,526.5 C 378.5,529.5 378.5,532.5 378.5,535.5C 379.833,535.5 381.167,535.5 382.5,535.5C 381.082,537.308 379.082,537.975 376.5,537.5C 375.92,533.351 376.586,529.684 378.5,526.5 Z"/></g>
<g><path style="opacity:1" fill="#c7c6c6" d="M 378.5,526.5 C 376.586,529.684 375.92,533.351 376.5,537.5C 379.082,537.975 381.082,537.308 382.5,535.5C 381.167,535.5 379.833,535.5 378.5,535.5C 378.5,532.5 378.5,529.5 378.5,526.5 Z"/></g>
<g><path style="opacity:1" fill="#b4b3b3" d="M 189.5,528.5 C 190.833,528.5 192.167,528.5 193.5,528.5C 193.5,531.5 193.5,534.5 193.5,537.5C 192.527,535.052 192.194,532.385 192.5,529.5C 191.209,529.737 190.209,529.404 189.5,528.5 Z"/></g>
<g><path style="opacity:1" fill="#f6f6f6" d="M 214.5,529.5 C 218.138,528.737 219.638,530.07 219,533.5C 214.415,535.413 212.915,534.079 214.5,529.5 Z"/></g>
<g><path style="opacity:1" fill="#b0afaf" d="M 323.5,528.5 C 322.737,529.268 321.737,529.768 320.5,530C 321.737,530.232 322.737,530.732 323.5,531.5C 322.167,531.5 320.833,531.5 319.5,531.5C 319.5,530.5 319.5,529.5 319.5,528.5C 320.833,528.5 322.167,528.5 323.5,528.5 Z"/></g>
<g><path style="opacity:1" fill="#b4b2b2" d="M 323.5,532.5 C 322.737,533.268 321.737,533.768 320.5,534C 321.737,534.232 322.737,534.732 323.5,535.5C 322.167,535.5 320.833,535.5 319.5,535.5C 319.5,534.5 319.5,533.5 319.5,532.5C 320.833,532.5 322.167,532.5 323.5,532.5 Z"/></g>
</svg>
