<svg class="icon icon--logo01" width="1597" height="945">
<path d="M0 0 C1.64281448 -0.00101212 1.64281448 -0.00101212 3.31881714 -0.00204468 C43.4568856 0.03693316 82.45715205 4.82131472 121.64404297 13.4453125 C124.8018315 14.13798327 127.96247752 14.81522491 131.12490845 15.48631287 C197.21374276 29.55458638 258.68606615 60.67929263 313.3125 100.25 C313.87582031 100.65637695 314.43914062 101.06275391 315.01953125 101.48144531 C333.68125887 115.06255037 348.62596407 130.70458696 359.3125 151.25 C359.80621094 152.17296875 360.29992188 153.0959375 360.80859375 154.046875 C369.12751602 170.73408999 369.44298505 190.56620048 364.3125 208.25 C356.90446159 229.76120777 342.39976779 245.90465371 322 256 C305.63219281 263.02471045 285.92467394 263.68222019 269.16503906 257.45166016 C259.86577493 253.67754174 251.686476 249.13918173 244.3125 242.25 C243.48492188 241.51265625 242.65734375 240.7753125 241.8046875 240.015625 C232.11876657 230.95173569 224.96310996 220.07059451 221.3125 207.25 C221.02826172 206.3528125 221.02826172 206.3528125 220.73828125 205.4375 C216.8083857 185.24721094 225.5799804 168.79822419 235.79296875 152.21875 C242.87978428 140.69660972 246.70777456 132.15407322 245.3125 118.25 C242.1735566 105.17106917 230.40730176 93.67721411 221.3125 84.25 C220.59578125 83.47011719 219.8790625 82.69023438 219.140625 81.88671875 C208.15727854 70.26336526 194.24929891 61.86259376 180.3125 54.25 C179.15878906 53.61191406 178.00507812 52.97382812 176.81640625 52.31640625 C152.44965879 39.89793904 122.99679811 36.2701936 96.125 33 C95.4434787 32.91682526 94.7619574 32.83365051 94.05978394 32.74795532 C75.94005056 30.56656916 58.04317442 30.0094095 39.8125 30 C38.63575714 29.99932526 37.45901428 29.99865051 36.24661255 29.99795532 C17.7590524 30.01476148 -0.36921288 30.54682633 -18.6875 33.25 C-19.85313477 33.42160645 -21.01876953 33.59321289 -22.21972656 33.77001953 C-81.03068315 42.7726817 -138.15434361 64.65074373 -184.6875 102.25 C-185.28868652 102.73404297 -185.88987305 103.21808594 -186.50927734 103.71679688 C-200.49436288 115.07943533 -213.83497358 127.83365693 -224.6875 142.25 C-225.11724121 142.81396484 -225.54698242 143.37792969 -225.98974609 143.95898438 C-259.95969518 188.65066153 -273.88262627 237.8282484 -273.82121277 293.38720703 C-273.82308719 295.03000789 -273.82539036 296.6728083 -273.82807809 298.31560802 C-273.83412467 302.7739769 -273.83407105 307.23232683 -273.83288372 311.69069886 C-273.83267788 316.52119366 -273.83821578 321.35168266 -273.84294128 326.18217468 C-273.85120911 335.62532326 -273.85399437 345.06846559 -273.85455366 354.51161748 C-273.85503067 362.19641572 -273.85709462 369.88121193 -273.86025429 377.56600952 C-273.86905038 399.40763049 -273.87367531 421.24924656 -273.87292381 443.09086931 C-273.87288386 444.26567248 -273.8728439 445.44047564 -273.87280273 446.65087891 C-273.87276185 447.8271351 -273.87272097 449.0033913 -273.87267885 450.21529162 C-273.8722727 469.26314434 -273.88183724 488.31097726 -273.8959411 507.35882425 C-273.91034602 526.96975626 -273.91720902 546.58067863 -273.91634732 566.19161606 C-273.91601677 577.1804259 -273.91870141 588.16921498 -273.92952538 599.15802002 C-273.93868475 608.51600536 -273.94076142 617.87396053 -273.93401595 627.23194844 C-273.93077792 631.99469235 -273.93059411 636.75737858 -273.9393692 641.52011681 C-274.05658979 709.64193402 -260.42199608 768.91647446 -212.6875 820.25 C-211.5582788 821.55887002 -210.4331406 822.8712759 -209.3125 824.1875 C-201.50217914 833.11358098 -192.96960912 840.89000522 -183.6875 848.25 C-182.57753773 849.1709046 -181.46955432 850.09419811 -180.36328125 851.01953125 C-151.52826976 874.93826652 -116.96150642 892.12555319 -81.6875 904.25 C-80.86910645 904.53423828 -80.05071289 904.81847656 -79.20751953 905.11132812 C12.54934268 936.62723776 121.91939209 928.72122289 208.88598633 887.01586914 C222.6430259 880.39053333 222.6430259 880.39053333 235.11499023 871.72216797 C237.95024303 869.82275964 240.5118889 869.29079434 243.84375 868.56640625 C245.13023438 868.27830078 246.41671875 867.99019531 247.7421875 867.69335938 C249.09877839 867.39890933 250.45555054 867.10529319 251.8125 866.8125 C260.262339 864.97274899 268.52900555 863.04381042 276.64648438 859.99975586 C279.63656127 859.15886519 282.22131928 859.12101181 285.3125 859.25 C285.3125 862.25 285.3125 862.25 283.5390625 864.2734375 C222.28385923 919.64225487 133.51316412 944.05647782 52.3125 945.25 C51.15379395 945.27046387 49.99508789 945.29092773 48.80126953 945.31201172 C-25.15076268 946.44397831 -99.73343413 935.54163048 -167.6875 905.25 C-169.27788086 904.54520508 -169.27788086 904.54520508 -170.90039062 903.82617188 C-203.87708973 889.11349073 -235.60938774 871.74042979 -264.6875 850.25 C-265.25098145 849.83669434 -265.81446289 849.42338867 -266.39501953 848.99755859 C-273.30244067 843.92443923 -280.03301741 838.64891984 -286.6875 833.25 C-287.54859375 832.56421875 -288.4096875 831.8784375 -289.296875 831.171875 C-295.63386106 826.08030817 -301.62778994 820.70307052 -307.5625 815.15625 C-310.25297606 812.64252054 -312.99205439 810.18972112 -315.75 807.75 C-323.55781578 800.74331189 -331.06719175 793.34889784 -337.86328125 785.3515625 C-339.70335747 783.23173165 -341.6090838 781.18233555 -343.52832031 779.13427734 C-349.47220088 772.76818766 -354.88282298 766.09672458 -360.18359375 759.19091797 C-361.76974138 757.14386056 -363.38203598 755.11964419 -365 753.09765625 C-415.10590663 690.18478996 -447.10435062 612.60273038 -458.6875 533.25 C-458.85266113 532.15429688 -459.01782227 531.05859375 -459.18798828 529.9296875 C-466.11269618 481.9221986 -462.30815827 432.64804534 -452.35058594 385.40136719 C-451.42957036 381.02416942 -450.55599844 376.63787095 -449.6875 372.25 C-450.13851074 373.12229248 -450.13851074 373.12229248 -450.59863281 374.01220703 C-452.04245604 376.80108856 -453.49000112 379.58802455 -454.9375 382.375 C-455.40929687 383.28765625 -455.88109375 384.2003125 -456.3671875 385.140625 C-459.46342728 391.09493226 -462.63786177 396.99866577 -465.86817932 402.88108826 C-472.47338825 414.91339116 -478.79057748 427.07212385 -485 439.3125 C-487.01164123 443.26632792 -489.02539901 447.21907671 -491.0390625 451.171875 C-491.52813583 452.13265457 -492.01720917 453.09343414 -492.52110291 454.08332825 C-496.60197857 462.09581972 -500.72947776 470.08331847 -504.875 478.0625 C-513.5616265 494.81317009 -522.03064761 511.65931914 -530.12646484 528.70385742 C-533.02474159 534.79838841 -535.95933026 540.87402698 -538.921875 546.9375 C-539.29703751 547.70542877 -539.67220001 548.47335754 -540.05873108 549.26455688 C-540.4396843 550.04430878 -540.82063751 550.82406067 -541.21313477 551.62744141 C-549.00751434 567.58208614 -556.63025087 583.59783008 -564.05712891 599.72753906 C-565.78851214 603.46823947 -567.53722969 607.2003771 -569.29296875 610.9296875 C-569.60055115 611.58303574 -569.90813354 612.23638397 -570.22503662 612.90953064 C-570.53507629 613.5680452 -570.84511597 614.22655975 -571.16455078 614.9050293 C-579.1532905 631.87305479 -586.96076646 648.91886333 -594.67706299 666.0123291 C-595.71474488 668.31033535 -596.75350565 670.60785149 -597.79248047 672.90527344 C-609.16994152 698.06927717 -620.38720846 723.30217713 -631.51177979 748.57891846 C-632.67973147 751.23235092 -633.84833509 753.8854954 -635.01708984 756.53857422 C-642.7322507 774.05475973 -650.41497388 791.58382868 -657.99145508 809.16049194 C-664.56250806 824.40327494 -671.21723821 839.60117779 -678.08447266 854.71337891 C-679.1939935 857.16121914 -680.29852707 859.61074857 -681.39599609 862.06396484 C-682.82980016 865.26883343 -684.27579587 868.46794305 -685.73013306 871.6635437 C-686.53187579 873.43243362 -687.32220116 875.20648486 -688.11206055 876.98071289 C-692.43199582 886.4088928 -698.01860646 896.41555323 -707.6875 901.25 C-713.76813383 901.76530795 -717.75039863 901.05938725 -722.6875 897.25 C-727.74642835 892.78787856 -731.47473966 887.98418399 -734.875 882.1875 C-735.57363159 881.01586304 -735.57363159 881.01586304 -736.28637695 879.82055664 C-737.77162845 877.3071494 -739.23362791 874.78167593 -740.6875 872.25 C-741.15285156 871.44175781 -741.61820313 870.63351562 -742.09765625 869.80078125 C-760.83712513 836.96756141 -775.47749671 802.16656546 -789.87280273 767.27978516 C-790.2228537 766.43152161 -790.57290466 765.58325806 -790.93356323 764.70928955 C-791.64590393 762.98307879 -792.35808186 761.25680084 -793.07009888 759.53045654 C-800.92224871 740.51003669 -809.18695438 721.68039942 -817.5267334 702.86975098 C-819.49261806 698.43291738 -821.45324472 693.99376213 -823.4140625 689.5546875 C-824.20856567 687.75617968 -825.00308066 685.95767708 -825.79760742 684.15917969 C-826.19176849 683.26694702 -826.58592957 682.37471436 -826.99203491 681.45544434 C-828.18733939 678.75036348 -829.383256 676.04555405 -830.5793457 673.34082031 C-837.85518887 656.88589639 -845.08989869 640.41305287 -852.31550598 623.9360199 C-854.99361494 617.82964444 -857.67570999 611.72502919 -860.359375 605.62109375 C-867.99951933 588.24136149 -875.6137594 570.85155159 -883.1484375 553.42578125 C-887.2078709 544.03751733 -891.28976488 534.65901773 -895.36965942 525.27963257 C-902.98926104 507.76264787 -910.59870834 490.24135808 -918.18847656 472.71142578 C-919.72641697 469.16013604 -921.26539536 465.60929778 -922.8046875 462.05859375 C-930.42143101 444.48860337 -938.0250313 426.91294888 -945.62414551 409.33532715 C-947.94678671 403.96289233 -950.27007335 398.59073704 -952.59375 393.21875 C-960.20265498 375.62756503 -967.80479898 358.03347372 -975.4019165 340.43719482 C-982.84006426 323.20938819 -990.28615398 305.98502692 -997.73583984 288.76220703 C-1000.38454095 282.63861211 -1003.03260893 276.51474343 -1005.68066406 270.39086914 C-1007.01713777 267.30016191 -1008.35373341 264.20950746 -1009.69042969 261.11889648 C-1013.34385925 252.67146181 -1016.99572561 244.22335653 -1020.64393616 235.77366638 C-1022.29949828 231.94004248 -1023.95722832 228.10738117 -1025.61938477 224.27661133 C-1026.28798833 222.73521706 -1026.95652653 221.19379444 -1027.625 219.65234375 C-1027.95745224 218.88575943 -1028.28990448 218.11917511 -1028.63243103 217.32936096 C-1030.71564013 212.51774436 -1032.77490445 207.69653721 -1034.81974792 202.86849976 C-1041.97443436 185.98887325 -1049.35188965 169.33343855 -1057.9375 153.125 C-1058.29407684 152.44674164 -1058.65065369 151.76848328 -1059.01803589 151.06967163 C-1060.02616123 149.16214696 -1061.04855324 147.26320756 -1062.078125 145.3671875 C-1062.65594727 144.30097168 -1063.23376953 143.23475586 -1063.82910156 142.13623047 C-1066.18850044 138.4719092 -1068.71167285 135.01975672 -1072.86328125 133.40234375 C-1077.84725534 132.9012129 -1081.5810442 133.27563934 -1085.9609375 135.83203125 C-1090.18667772 139.30249211 -1091.72409196 144.03057044 -1092.28320312 149.34326172 C-1092.9171841 156.62991547 -1092.77601207 163.93946146 -1092.73423767 171.24642563 C-1092.70562628 176.57863707 -1092.69892963 181.91088752 -1092.69140625 187.24316406 C-1092.68954063 188.46394339 -1092.68767502 189.68472271 -1092.68575287 190.94249535 C-1092.66977346 208.09561346 -1092.78765167 225.24826929 -1092.88918066 242.40101147 C-1092.91811962 247.32383522 -1092.94601343 252.24666486 -1092.97390747 257.16949463 C-1092.97958005 258.17028101 -1092.98525262 259.17106739 -1092.99109709 260.20218062 C-1093.00269364 262.24957779 -1093.01428171 264.29697501 -1093.0258615 266.34437227 C-1093.03764007 268.42539244 -1093.04944246 270.50641248 -1093.06126809 272.58743238 C-1093.49378276 348.71315168 -1093.79780008 424.83806409 -1093.81033063 500.96509564 C-1093.81158894 508.07062485 -1093.81530562 515.17614961 -1093.82006836 522.28167725 C-1093.85985033 586.22401724 -1093.46707416 650.15305524 -1091.75 714.07550049 C-1091.66330043 717.3520499 -1091.58174638 720.62872137 -1091.49999619 723.90539742 C-1091.1035731 756.27969433 -1091.1035731 756.27969433 -1088.4375 788.5 C-1088.24679932 789.97593628 -1088.24679932 789.97593628 -1088.05224609 791.48168945 C-1083.73366483 822.59910361 -1070.95741265 852.18328722 -1045.82421875 872.0234375 C-1028.10552504 884.6008415 -1008.62407416 890.39627315 -987.6875 895.25 C-988.6875 897.25 -988.6875 897.25 -991.01171875 898.1796875 C-1013.17144808 904.40808994 -1036.78960362 905.92196633 -1059.6875 907.25 C-1060.33100403 907.29236786 -1060.97450806 907.33473572 -1061.63751221 907.37838745 C-1079.42770369 908.53823538 -1097.24662317 908.43743778 -1115.06591797 908.43530273 C-1118.62554047 908.43522192 -1122.18503303 908.44210622 -1125.74462891 908.45581055 C-1203.93041514 908.75187183 -1203.93041514 908.75187183 -1223.6875 901.25 C-1223.30943193 898.44149433 -1223.03356966 896.68400715 -1221.6875 894.25 C-1220.02319336 893.19335938 -1220.02319336 893.19335938 -1217.90234375 892.34375 C-1217.09144287 892.01084961 -1216.28054199 891.67794922 -1215.44506836 891.33496094 C-1214.5350708 890.97692383 -1213.62507324 890.61888672 -1212.6875 890.25 C-1211.69951416 889.84813477 -1210.71152832 889.44626953 -1209.69360352 889.03222656 C-1207.51723544 888.14777028 -1205.33875352 887.26850195 -1203.15844727 886.39379883 C-1164.07883068 871.4044469 -1164.07883068 871.4044469 -1138.25390625 840.03515625 C-1131.8370002 823.41213258 -1130.62751309 805.57816803 -1130.13407898 787.92883301 C-1130.11312661 787.19722161 -1130.09217423 786.46561021 -1130.07058694 785.71182877 C-1129.40224662 761.47236352 -1129.53731971 737.21810793 -1129.54177432 712.97157727 C-1129.54295695 705.44750833 -1129.53824127 697.92344546 -1129.5335034 690.39937833 C-1129.52391288 674.81701217 -1129.52102243 659.23464934 -1129.52044634 643.65228057 C-1129.51998445 631.62143253 -1129.51791408 619.59058578 -1129.51474571 607.55973816 C-1129.51384804 604.0805281 -1129.51295822 600.60131804 -1129.51207083 597.12210798 C-1129.51184979 596.25691599 -1129.51162874 595.391724 -1129.51140099 594.50031406 C-1129.50526218 570.22437383 -1129.50129893 545.94843403 -1129.50174427 521.67249298 C-1129.50175985 520.76036075 -1129.50177543 519.84822851 -1129.50179148 518.9084559 C-1129.50187457 514.28663593 -1129.50197361 509.66481596 -1129.50207619 505.04299599 C-1129.50209613 504.12526922 -1129.50211608 503.20754245 -1129.50213663 502.26200578 C-1129.50217706 500.4061551 -1129.50221886 498.55030442 -1129.50226202 496.69445374 C-1129.50287573 467.77465034 -1129.49534409 438.85485864 -1129.48168945 409.93505859 C-1129.46631675 377.3639547 -1129.4577237 344.79285849 -1129.45865268 312.22175074 C-1129.4587273 308.74757036 -1129.45877601 305.27338998 -1129.45880699 301.79920959 C-1129.45881865 300.9439154 -1129.4588303 300.0886212 -1129.45884231 299.20740899 C-1129.45887301 285.47851535 -1129.45250393 271.74963194 -1129.44387473 258.02074134 C-1129.43538394 244.22708443 -1129.43441972 230.43344242 -1129.44098405 216.63978434 C-1129.44466807 208.45852766 -1129.44288153 200.27731637 -1129.43304171 192.09606454 C-1129.42630293 185.97361421 -1129.43012481 179.85121177 -1129.43791493 173.72876364 C-1129.43944661 171.26313516 -1129.43764638 168.7975017 -1129.43205485 166.33187908 C-1129.35587507 130.3388832 -1132.33995011 89.99471707 -1158.98828125 62.921875 C-1159.87902344 62.04015625 -1160.76976562 61.1584375 -1161.6875 60.25 C-1162.38230469 59.53328125 -1163.07710937 58.8165625 -1163.79296875 58.078125 C-1181.52781164 40.92643942 -1206.47671079 34.88909772 -1229.6875 29.25 C-1228.6875 27.25 -1228.6875 27.25 -1225.28515625 26.06640625 C-1223.77665855 25.63695761 -1222.26461219 25.21985903 -1220.75 24.8125 C-1219.94675293 24.59368164 -1219.14350586 24.37486328 -1218.31591797 24.14941406 C-1212.68918857 22.66575455 -1207.05080444 21.46165426 -1201.3125 20.5 C-1200.62551025 20.38470947 -1199.93852051 20.26941895 -1199.23071289 20.15063477 C-1185.74030015 18.04539729 -1172.24870057 18.08994754 -1158.63354492 18.07299805 C-1156.40983476 18.06672328 -1154.18612563 18.0600756 -1151.9624176 18.05308533 C-1144.69760857 18.03217263 -1137.43279962 18.0216987 -1130.16796875 18.01171875 C-1127.65716351 18.00766717 -1125.14635838 18.00355013 -1122.63555336 17.99936867 C-1112.18923233 17.98252287 -1101.7429128 17.96788587 -1091.29658031 17.96061993 C-1088.59575079 17.95871057 -1085.89492128 17.95679014 -1083.1940918 17.95483398 C-1082.5229523 17.95435024 -1081.85181281 17.9538665 -1081.16033576 17.9533681 C-1070.28801545 17.94506724 -1059.41580511 17.91971884 -1048.54353281 17.88725331 C-1037.34579201 17.85409172 -1026.14809089 17.83649551 -1014.95029718 17.83297569 C-1008.67723702 17.83063209 -1002.40435146 17.8217604 -996.13133812 17.79651451 C-990.22884863 17.77313965 -984.32664764 17.7690384 -978.42412376 17.77927589 C-976.26796506 17.77976898 -974.11179166 17.77351633 -971.95567703 17.75971985 C-951.68244905 17.6373338 -933.33859716 20.20776932 -917.98022461 34.82104492 C-910.10408629 42.6531318 -904.64372354 50.89217315 -899.953125 60.89453125 C-899.30025009 62.27755684 -899.30025009 62.27755684 -898.63418579 63.68852234 C-894.5933155 72.32067238 -890.84572064 81.06418712 -887.18569946 89.86328125 C-885.16807369 94.71194214 -883.13163585 99.55271344 -881.09765625 104.39453125 C-880.66658066 105.42172272 -880.23550507 106.44891418 -879.79136658 107.50723267 C-874.42442047 120.28193354 -868.96309601 133.01619276 -863.5 145.75 C-862.98451599 146.95194 -862.46903198 148.15388 -861.93792725 149.39224243 C-855.57134902 164.23456054 -849.18453089 179.06794494 -842.76165771 193.88598633 C-837.02481444 207.12237543 -831.34351674 220.38226455 -825.66778564 233.6449585 C-816.62499463 254.775332 -807.52822916 275.88109705 -798.36291504 296.95861816 C-791.98797584 311.61984352 -785.65510953 326.29791626 -779.375 341 C-772.70638872 356.60960302 -765.92481199 372.16698593 -759.0847168 387.70214844 C-758.34160203 389.38995983 -757.59851886 391.07778514 -756.85546875 392.765625 C-756.49547287 393.58335388 -756.13547699 394.40108276 -755.76457214 395.24359131 C-752.5432212 402.56662854 -749.35982628 409.90559925 -746.1875 417.25 C-740.76706539 429.7943852 -735.28012681 442.30889474 -729.78076172 454.81884766 C-724.22722395 467.45285378 -718.69623149 480.09639601 -713.1875 492.75 C-707.414236 506.00809751 -701.62431165 519.25875211 -695.8125 532.5 C-695.44441223 533.3389682 -695.07632446 534.1779364 -694.69708252 535.04232788 C-690.35597594 544.93493923 -685.99535395 554.81860421 -681.609375 564.69140625 C-680.75759854 566.61097989 -679.90587292 568.53057608 -679.05419922 570.45019531 C-677.45052569 574.06465681 -675.84220484 577.67699576 -674.23095703 581.28808594 C-670.07407168 590.6368672 -666.09505471 600.03276397 -662.35470581 609.55671692 C-657.48893964 623.21594862 -657.48893964 623.21594862 -647.6875 633.25 C-642.2083788 635.5243522 -637.37172853 635.73965989 -631.6875 634.25 C-622.20749949 630.23656913 -617.50905158 621.69805073 -613.578125 612.65234375 C-613.21396988 611.83770157 -612.84981476 611.02305939 -612.47462463 610.18373108 C-611.69360643 608.43375793 -610.91707617 606.68177598 -610.14468384 604.92797852 C-608.48955303 601.17059685 -606.81181485 597.42344601 -605.13557434 593.67544556 C-604.26823056 591.73549708 -603.40201824 589.79504234 -602.53691101 587.85409546 C-598.268894 578.2833785 -593.90018359 568.76054317 -589.5 559.25 C-589.1297168 558.44901886 -588.75943359 557.64803772 -588.37792969 556.82278442 C-576.93075709 532.06933408 -565.32417802 507.39411336 -553.40830994 482.86254883 C-551.52215703 478.97760122 -549.64645574 475.08777548 -547.77700806 471.19476318 C-533.28528645 441.02501269 -518.33963937 411.04170568 -502.08105469 381.77978516 C-500.55722307 379.01350219 -499.0614252 376.23326987 -497.5703125 373.44921875 C-489.92900578 359.18706049 -481.94901698 345.16152822 -473.6875 331.25 C-473.33927185 330.6626709 -472.9910437 330.0753418 -472.63226318 329.47021484 C-441.52551328 277.00594296 -407.71217282 226.41522815 -368.12011719 179.93701172 C-366.70150845 178.26649597 -365.29156198 176.58898958 -363.8828125 174.91015625 C-352.16362791 161.0036581 -339.52044666 147.99753151 -326.6875 135.125 C-326.19881439 134.63363556 -325.71012878 134.14227112 -325.20663452 133.63601685 C-319.54247316 127.94825233 -313.7983166 122.45388219 -307.6875 117.25 C-306.50759673 116.21657417 -305.32918821 115.18143904 -304.15234375 114.14453125 C-289.91675975 101.67914422 -275.1827838 90.11414109 -259.6875 79.25 C-259.07503418 78.82009766 -258.46256836 78.39019531 -257.83154297 77.94726562 C-210.72670676 45.14423418 -157.78733293 22.14055232 -101.6875 10.25 C-100.0468457 9.89881104 -100.0468457 9.89881104 -98.37304688 9.54052734 C-84.5019006 6.6289148 -70.57211952 4.61215266 -56.5 3 C-55.77641296 2.91682526 -55.05282593 2.83365051 -54.30731201 2.74795532 C-36.20210887 0.69524806 -18.21306874 0.01016133 0 0 Z M-448.6875 368.25 C-447.6875 370.25 -447.6875 370.25 -447.6875 370.25 Z " fill="#FFFFFF" transform="translate(1229.6875,-0.24999999999999997)"/>
</svg>
